<svg xmlns="http://www.w3.org/2000/svg" width="672" height="434.5"><defs><filter id="a" x="0" y="207.5" width="672" height="227" filterUnits="userSpaceOnUse"><feOffset dy="26"/><feGaussianBlur stdDeviation="20" result="blur"/><feFlood flood-opacity=".059"/><feComposite operator="in" in2="blur"/></filter></defs><g data-name="Group 1"><g filter="url(#a)"><path data-name="Shadow" fill="#fff" opacity=".5" d="M60 241.5h552v107H60z"/></g><g transform="translate(35 .5)"><rect width="602" height="338" rx="12" fill="#f7f8f9" stroke="#f2f2f2" stroke-miterlimit="10"/><g data-name="Item Copy 2" transform="translate(312 68)"><path data-name="Shape" fill="#fff" d="M0 15h130v236H0z"/><rect data-name="Shape" width="112" height="84" rx="4" transform="translate(9 24)" fill="#00b8d9" opacity=".1"/><rect data-name="Shape" width="112" height="84" rx="4" transform="translate(9 118)" fill="#36b37e" opacity=".1"/><rect data-name="Shape" width="112" height="24" rx="4" transform="translate(9 212)" fill="#1565d8" opacity=".1"/><text data-name="Artboard 3" transform="translate(0 7)" fill="#696969" font-size="8" font-family="HKGrotesk-Medium, HK Grotesk" font-weight="500"><tspan x="0" y="0">Artboard 3</tspan></text></g><path data-name="Shape" d="M422 0h168a12 12 0 0112 12v314a12 12 0 01-12 12H422V0z" fill="#fff"/><rect data-name="Shape" width="65" height="7" rx="2" transform="translate(489 65)" fill="#5a7184" opacity=".1"/><rect data-name="Shape" width="65" height="7" rx="2" transform="translate(489 84)" fill="#5a7184" opacity=".1"/><path data-name="Shape" d="M12 0h578a12 12 0 0112 12v28H0V12A12 12 0 0112 0z" fill="#183b56"/><path d="M19 9h22v22H19z" fill="none"/><path data-name="Path" d="M19 9h22v22H19z" fill="none"/><path data-name="Combined Shape" d="M23.18 26.16a.66.66 0 010-1.32h14.08a.66.66 0 010 1.32zm0-6.16a.66.66 0 010-1.32h14.08a.66.66 0 010 1.32zm0-6.16a.66.66 0 010-1.32h14.08a.66.66 0 010 1.32z" fill="#fff"/><g data-name="Item" transform="translate(55 6)"><rect data-name="Shape" width="28" height="28" rx="4" fill="#00b8d9"/><path data-name="Path" d="M4 4h20v20H4z" fill="none"/><path data-name="Path" d="M13.473 21.6a.4.4 0 01-.386-.294l-1.359-4.931-3.089 2.3a.4.4 0 01-.237.08.41.41 0 01-.315-.155.39.39 0 01-.078-.332l2.599-12.35A.4.4 0 0111 5.6a.393.393 0 01.293.13l8.6 9.434a.4.4 0 01-.291.669.432.432 0 01-.054 0l-3.848-.491 1.358 4.918a.4.4 0 01-.284.493l-3.2.834a.4.4 0 01-.101.013zm-1.515-6.3a.4.4 0 01.386.3l1.409 5.116 2.425-.632-1.407-5.1a.4.4 0 01.385-.506.412.412 0 01.052 0l3.364.427-7.342-8.059L9.01 17.4l2.71-2.016a.4.4 0 01.238-.084z" fill="#fff"/></g><g transform="translate(530 6)"><rect data-name="Shape" width="48" height="28" rx="4" fill="#00b8d9"/><text transform="translate(24 18)" fill="#fff" font-size="12" font-family="HKGrotesk-Bold, HK Grotesk" font-weight="700" letter-spacing=".013em"><tspan x="-15.636" y="0">Share</tspan></text></g><g data-name="Item" transform="translate(97 6)"><rect data-name="Shape" width="28" height="28" rx="4" fill="#183b56"/><path data-name="Path" d="M4 4h20v20H4z" fill="none"/><path data-name="Combined Shape" d="M18.8 22.4a.4.4 0 01-.4-.4v-1.2H9.6V22a.4.4 0 01-.4.4H6a.4.4 0 01-.4-.4v-3.2a.4.4 0 01.4-.4h1.2V9.6H6a.4.4 0 01-.4-.4V6a.4.4 0 01.4-.4h3.2a.4.4 0 01.4.4v1.2h8.8V6a.4.4 0 01.4-.4H22a.4.4 0 01.4.4v3.2a.4.4 0 01-.4.4h-1.2v8.8H22a.4.4 0 01.4.4V22a.4.4 0 01-.4.4zm.4-.8h2.4v-2.4h-2.4zm-12.8 0h2.4v-2.4H6.4zm12-1.6v-1.2a.4.4 0 01.4-.4H20V9.6h-1.2a.4.4 0 01-.4-.4V8H9.6v1.2a.4.4 0 01-.4.4H8v8.8h1.2a.4.4 0 01.4.4V20zm3.2-11.2V6.4h-2.4v2.4h2.4zm-12.8 0V6.4H6.4v2.4h2.4z" fill="#fff"/></g><g data-name="Item" transform="translate(139 6)"><rect data-name="Shape" width="28" height="28" rx="4" fill="#183b56"/><path data-name="Path" d="M4 4h20v20H4z" fill="none"/><path data-name="Path" d="M22 22.4H6a.4.4 0 01-.4-.4V6a.4.4 0 01.4-.4h16a.4.4 0 01.4.4v16a.4.4 0 01-.4.4zM6.4 6.4v15.2h15.2V6.4z" fill="#fff"/></g><g data-name="Item" transform="translate(181 6)"><rect data-name="Shape" width="28" height="28" rx="4" fill="#183b56"/><path data-name="Path" d="M4 4h20v20H4z" fill="none"/><path data-name="Combined Shape" d="M6.8 22.4a.4.4 0 01-.283-.117l-.024-.026a.4.4 0 01-.093-.293l.8-8.8a.4.4 0 01.22-.321l7.943-3.972 2.355-2.354a.4.4 0 01.565 0l4 4a.4.4 0 010 .565l-2.354 2.355-3.971 7.942a.4.4 0 01-.321.22l-8.79.801H6.8zm4.283-4.118L7.865 21.5l7.477-.68 3.772-7.543-3.592-3.59-7.543 3.771-.679 7.478 3.219-3.219a.393.393 0 01.281-.117 2.009 2.009 0 01.185-2.615A2 2 0 1111.2 18a.4.4 0 01-.117.283zm.469-2.731a1.2 1.2 0 10.848-.351 1.2 1.2 0 00-.848.351zM16.166 9.2l3.434 3.434 1.835-1.834L18 7.366z" fill="#fff"/></g><g data-name="Item" transform="translate(223 6)"><rect data-name="Shape" width="28" height="28" rx="4" fill="#183b56"/><path data-name="Path" d="M4 4h20v20H4z" fill="none"/><path data-name="Combined Shape" d="M8.4 22.4a2.8 2.8 0 01-2.8-2.8V8.4a2.8 2.8 0 012.8-2.8h11.2a2.8 2.8 0 012.8 2.8v11.2a2.8 2.8 0 01-2.8 2.8zm-2-14v11.2a2 2 0 002 2h11.2a2 2 0 002-2V8.4a2 2 0 00-2-2H8.4a2 2 0 00-2 2zm7.2 9.6v-7.6H10a.4.4 0 110-.8h8a.4.4 0 010 .8h-3.6V18a.4.4 0 01-.8 0z" fill="#fff"/></g><g data-name="Item" transform="translate(410 6)"><rect data-name="Shape" width="28" height="28" rx="4" fill="#183b56"/><path data-name="Path" d="M4 4h20v20H4z" fill="none"/><path data-name="Path" d="M4 4h20v20H4z" fill="none"/><path data-name="Path" d="M22 22.4a.406.406 0 01-.089-.01l-4.091-.909A8.312 8.312 0 0114 22.4a8.4 8.4 0 118.4-8.4 8.312 8.312 0 01-.919 3.823l.909 4.091a.4.4 0 01-.388.487zm-8-16a7.6 7.6 0 103.578 14.306.4.4 0 01.189-.047.4.4 0 01.086.009l3.62.8-.8-3.62a.4.4 0 01.038-.275A7.6 7.6 0 0014 6.4z" fill="#fff"/><g transform="translate(16 5)" fill="#01b681" stroke="#fff" stroke-miterlimit="10"><circle cx="4" cy="4" r="4" stroke="none"/><circle cx="4" cy="4" r="3.5" fill="none"/></g></g><g transform="translate(452 7)"><g data-name="Shape" fill="none" stroke="#ffaa0a" stroke-miterlimit="10"><circle cx="13" cy="13" r="13" stroke="none"/><circle cx="13" cy="13" r="12.5"/></g><circle data-name="Shape" cx="10" cy="10" r="10" transform="translate(3 3)" fill="#fc5a5a"/></g><g data-name="Image" transform="translate(490 7)"><g data-name="Shape" fill="none" stroke="#e01e5a" stroke-miterlimit="10"><circle cx="13" cy="13" r="13" stroke="none"/><circle cx="13" cy="13" r="12.5"/></g><circle data-name="Shape" cx="10" cy="10" r="10" transform="translate(3 3)" fill="#fc5a5a"/></g><g data-name="Item"><g fill="#fff" stroke="#e4e4e4" stroke-miterlimit="10" transform="translate(437 65)"><rect width="40" height="40" rx="4" stroke="none"/><rect x=".5" y=".5" width="39" height="39" rx="3.5" fill="none"/></g><path data-name="Path" d="M445 73h24v24h-24z" fill="none"/><path data-name="Path" d="M456.52 84.52v-7.2a.48.48 0 01.96 0v7.2h7.2a.48.48 0 010 .96h-7.2v7.2a.48.48 0 01-.96 0v-7.2h-7.2a.48.48 0 010-.96z" fill="#2e2e2e"/></g><g data-name="Item" transform="translate(437 135)"><g data-name="Shape" fill="#fff" stroke="#e4e4e4" stroke-miterlimit="10"><rect width="148" height="30" rx="4" stroke="none"/><rect x=".5" y=".5" width="147" height="29" rx="3.5" fill="none"/></g><rect data-name="Shape Copy 3" width="148" height="30" rx="4" transform="translate(0 154)" fill="#183b56"/><text data-name="Export to.." transform="translate(74 173)" fill="#fff" font-size="12" font-family="HKGrotesk-Bold, HK Grotesk" font-weight="700" letter-spacing=".013em"><tspan x="-29.592" y="0">Export to..</tspan></text><rect data-name="Shape" width="32" height="24" rx="4" transform="translate(0 36)" fill="#b3bac5" opacity=".1"/><rect data-name="Shape" width="32" height="24" rx="4" transform="translate(39 36)" fill="#b3bac5" opacity=".1"/><rect data-name="Shape" width="32" height="24" rx="4" transform="translate(78 36)" fill="#b3bac5" opacity=".1"/><rect data-name="Shape" width="32" height="24" rx="4" transform="translate(117 36)" fill="#b3bac5" opacity=".1"/></g><g data-name="Item" transform="translate(437 228)"><g data-name="Item" transform="translate(128)"><g data-name="iconspace_Add_25px Copy"><path data-name="Path" d="M3 3h16v16H3z" fill="none"/><path data-name="Path" d="M10.68 10.68v-4.8a.32.32 0 01.64 0v4.8h4.8a.32.32 0 010 .64h-4.8v4.8a.32.32 0 01-.64 0v-4.8h-4.8a.32.32 0 010-.64z" fill="#2e2e2e"/></g><circle data-name="Oval Copy 4" cx="11" cy="11" r="11" fill="#5a7184" opacity=".1"/></g><circle data-name="Shape" cx="11" cy="11" r="11" fill="#1565d8"/><circle data-name="Shape" cx="11" cy="11" r="11" transform="translate(32)" fill="#00b8d9"/><circle data-name="Shape" cx="11" cy="11" r="11" transform="translate(64)" fill="#e95432"/><circle data-name="Shape" cx="11" cy="11" r="11" transform="translate(96)" fill="#faad13"/></g><path d="M437 120h148" fill="none" stroke="#e4e4e4" stroke-miterlimit="10"/><path data-name="Line" d="M437 210h148" fill="none" stroke="#e4e4e4" stroke-miterlimit="10"/><g data-name="Item" transform="translate(24 68)"><path data-name="Shape" fill="#fff" d="M0 15h130v226H0z"/><text transform="translate(9 39)" fill="#183b56" font-size="12" font-family="HKGrotesk-Bold, HK Grotesk" font-weight="700" letter-spacing=".013em"><tspan x="0" y="0">Name</tspan></text><rect data-name="Shape" width="52" height="44" rx="4" transform="translate(9 53)" fill="#b3bac5" opacity=".1"/><rect data-name="Shape" width="52" height="64" rx="4" transform="translate(69 53)" fill="#b3bac5" opacity=".1"/><rect data-name="Shape" width="52" height="54" rx="4" transform="translate(9 105)" fill="#b3bac5" opacity=".1"/><rect data-name="Shape" width="52" height="24" rx="4" transform="translate(9 167)" fill="#b3bac5" opacity=".1"/><rect data-name="Shape" width="52" height="44" rx="4" transform="translate(69 125)" fill="#b3bac5" opacity=".1"/><rect data-name="Shape Copy 2" width="52" height="44" rx="4" transform="translate(69 177)" fill="#fff" stroke="#979797" stroke-miterlimit="10" stroke-dasharray="5 5" opacity=".1"/><text data-name="Artboard 1" transform="translate(0 7)" fill="#696969" font-size="8" font-family="HKGrotesk-Medium, HK Grotesk" font-weight="500"><tspan x="0" y="0">Artboard 1</tspan></text></g><g data-name="Item" transform="translate(168 68)"><path data-name="Shape" fill="#fff" d="M0 15h130v166H0z"/><rect data-name="Shape" width="112" height="84" rx="4" transform="translate(9 24)" fill="#faad13" opacity=".1"/><rect data-name="Shape" width="95" height="7" rx="2" transform="translate(9 122)" fill="#5a7184" opacity=".1"/><rect data-name="Shape" width="55" height="7" rx="2" transform="translate(9 152)" fill="#5a7184" opacity=".1"/><rect data-name="Shape" width="105" height="7" rx="2" transform="translate(9 137)" fill="#5a7184" opacity=".1"/><text data-name="Artboard 2" transform="translate(0 7)" fill="#696969" font-size="8" font-family="HKGrotesk-Medium, HK Grotesk" font-weight="500"><tspan x="0" y="0">Artboard 2</tspan></text></g><g><g data-name="iconspace_Cursor_25px"><path data-name="Path" d="M123 260h23v23h-23z" fill="none"/><path data-name="Path" d="M136.459 274.88l-2.879-.16-1.693 1.351-3.552 2.643a.46.46 0 01-.725-.464l2.99-14.204a.46.46 0 01.789-.216l9.892 10.85a.46.46 0 01-.4.766z" fill="#e95432"/></g><g data-name="Button" transform="translate(126 285)"><rect data-name="Shape" width="55" height="24" rx="4" fill="#e95432"/><text transform="translate(27.5 16)" fill="#fff" font-size="12" font-family="HKGrotesk-Bold, HK Grotesk" font-weight="700" letter-spacing=".013em"><tspan x="-17.148" y="0">Bobby</tspan></text></g></g><g data-name="Item"><g data-name="iconspace_Cursor_25px"><path data-name="Path" d="M331 159h23v23h-23z" fill="none"/><path data-name="Path" d="M344.459 173.88l-2.879-.16-1.693 1.351-3.552 2.643a.46.46 0 01-.725-.464l2.99-14.204a.46.46 0 01.789-.216l9.892 10.85a.46.46 0 01-.4.766z" fill="#faad13"/></g><g data-name="Button" transform="translate(336 186)"><rect data-name="Shape" width="56" height="24" rx="4" fill="#faad13"/><text transform="translate(28.5 16)" fill="#fff" font-size="12" font-family="HKGrotesk-Bold, HK Grotesk" font-weight="700" letter-spacing=".013em"><tspan x="-18.063" y="0">Garcia</tspan></text></g></g></g></g></svg>