<svg xmlns="http://www.w3.org/2000/svg" width="16.884" height="17.249"><path d="M.927 12.491A8.527 8.527 0 010 8.624a8.527 8.527 0 01.927-3.867 8.614 8.614 0 017.7-4.758 8.244 8.244 0 015.763 2.25l-2.457 2.458a4.683 4.683 0 00-3.306-1.294A5.151 5.151 0 003.79 6.978a5.184 5.184 0 00-.273 1.646 4.993 4.993 0 00.273 1.646 5.151 5.151 0 004.837 3.565 5.2 5.2 0 002.925-.834 4 4 0 001.726-2.573h-4.65V7.186h8.121a10.031 10.031 0 01.137 1.632 8.431 8.431 0 01-2.56 6.339 8.212 8.212 0 01-5.7 2.091 8.614 8.614 0 01-7.699-4.757z" fill="#5c7589"/></svg>