<svg xmlns="http://www.w3.org/2000/svg" width="32.276" height="32.25"><path data-name="Path 12" d="M6.805 20.387a3.389 3.389 0 11-3.39-3.389h3.39zm1.695 0a3.39 3.39 0 016.779 0v8.473a3.39 3.39 0 01-6.779 0z" fill="#e01e5a"/><path data-name="Path 13" d="M11.889 6.779a3.389 3.389 0 113.389-3.389v3.389zm0 1.72a3.39 3.39 0 110 6.779h-8.5a3.39 3.39 0 110-6.779z" fill="#36c5f0"/><path data-name="Path 14" d="M25.471 11.889a3.389 3.389 0 113.389 3.389h-3.389zm-1.695 0a3.39 3.39 0 01-6.779 0v-8.5a3.39 3.39 0 116.779 0v8.5z" fill="#2eb67d"/><path data-name="Path 15" d="M20.387 25.471a3.389 3.389 0 11-3.389 3.39v-3.39zm0-1.695a3.39 3.39 0 010-6.779h8.5a3.39 3.39 0 010 6.779z" fill="#ecb22e"/></svg>