<svg xmlns="http://www.w3.org/2000/svg" width="32.381" height="33.755"><path d="M5.584 5.918c1.05.853 1.444.788 3.415.656l18.586-1.116c.394 0 .066-.393-.065-.459l-3.086-2.231a3.709 3.709 0 00-2.89-.854l-18 1.313c-.656.065-.787.393-.526.656zM6.7 10.249v19.557c0 1.051.525 1.444 1.707 1.379L28.833 30c1.183-.065 1.314-.788 1.314-1.642V8.936c0-.852-.328-1.312-1.052-1.246L7.75 8.936c-.788.066-1.051.46-1.051 1.313zM26.865 11.3c.131.591 0 1.182-.592 1.248l-.984.2V27.18a5.128 5.128 0 01-2.3.722c-1.051 0-1.315-.328-2.1-1.312l-6.44-10.106v9.778l2.037.46s0 1.181-1.644 1.181l-4.531.263a.845.845 0 01.46-1.05l1.182-.328V13.859l-1.642-.132a1.228 1.228 0 011.116-1.51l4.861-.328 6.7 10.238v-9.056l-1.708-.2a1.111 1.111 0 011.05-1.313zM2.036 1.455L20.756.076c2.3-.2 2.89-.065 4.335.984l5.976 4.2c.986.722 1.315.919 1.315 1.706V30c0 1.444-.526 2.3-2.365 2.428l-21.74 1.313a2.725 2.725 0 01-2.76-1.05l-4.4-5.709A4.41 4.41 0 010 24.227V3.751a2.058 2.058 0 012.036-2.3z" fill-rule="evenodd"/></svg>