<svg xmlns="http://www.w3.org/2000/svg" width="17.183" height="14.011"><path d="M5.348 14.01a10.014 10.014 0 0010.076-9.937v-.587a8.037 8.037 0 001.76-1.829 7.14 7.14 0 01-2.036.552A3.674 3.674 0 0016.7.243a7.379 7.379 0 01-2.243.863 3.542 3.542 0 00-5-.138 3.441 3.441 0 00-1.1 2.588 2.941 2.941 0 00.1.794A9.958 9.958 0 011.139.622a3.556 3.556 0 001.1 4.727 3.242 3.242 0 01-1.583-.445v.035a3.548 3.548 0 002.829 3.485 4.344 4.344 0 01-.932.138 4.228 4.228 0 01-.656-.069 3.479 3.479 0 003.312 2.45 7.181 7.181 0 01-4.382 1.518A6.649 6.649 0 010 12.423a9.634 9.634 0 005.348 1.587" fill="#5c7589"/></svg>