<svg xmlns="http://www.w3.org/2000/svg" width="113.019" height="28.597"><g fill="#a8b2b9"><path data-name="Path 23" d="M36.155 22.517l1.412-3.279a9.41 9.41 0 005.555 1.73c1.48 0 2.413-.569 2.413-1.434-.023-2.413-8.857-.524-8.925-6.58-.023-3.074 2.709-5.442 6.58-5.442a10.126 10.126 0 016.238 1.867l-1.321 3.347a9.966 9.966 0 00-5.146-1.639c-1.207 0-2 .569-2 1.3.023 2.368 8.925 1.07 9.016 6.853 0 3.142-2.664 5.35-6.489 5.35a12.464 12.464 0 01-7.331-2.072m54.165-4.463a4.075 4.075 0 110-4.007l3.893-2.163a8.538 8.538 0 100 8.333l-3.893-2.163zM51.933.432h4.872V24.27h-4.872zm44.192 0V24.27h4.872v-7.149l5.783 7.149h6.238l-7.354-8.492 6.808-7.923h-5.965l-5.51 6.58V.432zM71.285 18.1a4.493 4.493 0 01-3.8 2.026 4.076 4.076 0 010-8.151 4.5 4.5 0 013.8 2.095zm0-10.246v1.935a5.74 5.74 0 00-4.85-2.277c-4.28 0-7.65 3.779-7.65 8.515s3.37 8.561 7.65 8.561a5.74 5.74 0 004.85-2.277v1.935h4.87V7.854z"/><path data-name="Path 24" d="M6.034 18.077a3.005 3.005 0 11-3.006-3.005h3.006zm1.5 0a3.005 3.005 0 116.011 0v7.513a3.005 3.005 0 11-6.011 0z"/><path data-name="Path 25" d="M10.541 6.011a3.005 3.005 0 113.005-3.005v3.005zm0 1.525a3.005 3.005 0 010 6.011H3.005a3.005 3.005 0 010-6.011z"/><path data-name="Path 26" d="M22.585 10.542a3.005 3.005 0 113.005 3.005h-3.005zm-1.5 0a3.005 3.005 0 11-6.011 0V3.005a3.005 3.005 0 116.011 0v7.536z"/><path data-name="Path 27" d="M18.077 22.585a3.005 3.005 0 11-3.005 3.006v-3.006zm0-1.5a3.005 3.005 0 010-6.011h7.536a3.005 3.005 0 010 6.011z"/></g></svg>