<svg xmlns="http://www.w3.org/2000/svg" width="113.458" height="35.408"><path d="M59.796 8.9a2.3 2.3 0 11-2.3-2.3 2.3 2.3 0 012.3 2.3zm-9.5 4.643v.567a4.428 4.428 0 00-3.438-1.418 6.785 6.785 0 00-6.876 7.018 6.785 6.785 0 006.876 7.018 4.3 4.3 0 003.438-1.453v.6a.485.485 0 00.5.5h2.871V13.043h-2.874a.507.507 0 00-.496.497zm0 8.542a3.523 3.523 0 01-2.871 1.453 3.712 3.712 0 01-4.005-3.828 3.712 3.712 0 014.005-3.828 3.62 3.62 0 012.871 1.453zm5.494-9.038h3.4V26.37h-3.4zm50.826-.354a4.428 4.428 0 00-3.438 1.418V6.628h-3.4V26.37h2.871a.507.507 0 00.5-.5v-.6a4.389 4.389 0 003.438 1.453 6.806 6.806 0 006.876-7.018 6.8 6.8 0 00-6.846-7.016zm-.567 10.81a3.471 3.471 0 01-2.871-1.453V17.3a3.846 3.846 0 012.871-1.453 3.712 3.712 0 014.005 3.828 3.712 3.712 0 01-4.004 3.825zm-8.041-5.037v7.939h-3.4v-7.55c0-2.2-.709-3.084-2.623-3.084a3.8 3.8 0 00-2.765 1.311v9.288h-3.412V13.043h2.7a.507.507 0 01.5.5v.567a4.883 4.883 0 013.615-1.418 5.517 5.517 0 013.722 1.276c1.198.989 1.663 2.265 1.663 4.498zm-20.455-5.777a4.428 4.428 0 00-3.438 1.418V6.628h-3.407V26.37h2.871a.507.507 0 00.5-.5v-.6a4.389 4.389 0 003.438 1.453 6.806 6.806 0 006.876-7.018 6.756 6.756 0 00-6.84-7.016zM76.986 23.5a3.471 3.471 0 01-2.871-1.453V17.3a3.846 3.846 0 012.871-1.453 3.712 3.712 0 014.005 3.828 3.712 3.712 0 01-4.005 3.825zm-9.215-10.81a5.426 5.426 0 011.56.177v3.155s-2.835-.957-4.608 1.063v9.322h-3.4V13.043h2.871a.507.507 0 01.5.5v.567a4.655 4.655 0 013.077-1.421zM32.434 25.165c-.177-.425-.354-.886-.532-1.276-.284-.638-.567-1.241-.815-1.808l-.035-.035a372.233 372.233 0 00-7.833-16.021l-.111-.212c-.284-.532-.567-1.1-.851-1.666A10.188 10.188 0 0020.985 2.2a5.724 5.724 0 00-4.5-2.2 5.949 5.949 0 00-4.537 2.127 12.219 12.219 0 00-1.276 1.949c-.284.567-.567 1.134-.851 1.666l-.106.213c-2.729 5.317-5.387 10.7-7.833 16.021l-.035.071c-.248.567-.532 1.17-.815 1.808Q.766 24.44.5 25.131a7.962 7.962 0 00-.425 3.828 7.533 7.533 0 004.608 5.884 7.279 7.279 0 002.871.567 8.064 8.064 0 00.922-.071 9.365 9.365 0 003.544-1.205 17.949 17.949 0 004.4-3.686 18.624 18.624 0 004.4 3.686 9.365 9.365 0 003.544 1.205 8.064 8.064 0 00.922.071 7.157 7.157 0 002.871-.567 7.518 7.518 0 004.608-5.884 6.7 6.7 0 00-.331-3.794zm-15.986 1.843a17.485 17.485 0 01-3.58-6.593 5.717 5.717 0 01-.106-2.162 3.439 3.439 0 01.567-1.489 3.763 3.763 0 013.119-1.56 3.629 3.629 0 013.119 1.56 3.439 3.439 0 01.567 1.489 5.69 5.69 0 01-.106 2.162 18.016 18.016 0 01-3.58 6.593zm14.142 1.666a5.267 5.267 0 01-3.225 4.147 5.367 5.367 0 01-2.694.354 6.97 6.97 0 01-2.694-.922 16.55 16.55 0 01-4.041-3.438 19.989 19.989 0 004.289-7.833 8.884 8.884 0 00.177-3.013 5.751 5.751 0 00-.957-2.41 5.972 5.972 0 00-5-2.517 6.063 6.063 0 00-5 2.517 5.751 5.751 0 00-.957 2.41 7.359 7.359 0 00.177 3.013 20.567 20.567 0 004.289 7.869 15.924 15.924 0 01-4.041 3.438 6.97 6.97 0 01-2.694.922 5.669 5.669 0 01-2.694-.354 5.267 5.267 0 01-3.217-4.147 5.868 5.868 0 01.319-2.765c.106-.354.284-.709.461-1.134.248-.567.532-1.17.815-1.772l.035-.071a389.735 389.735 0 017.796-15.915l.106-.213c.284-.532.567-1.1.851-1.63a7.785 7.785 0 01.992-1.56 3.721 3.721 0 015.671 0 7.785 7.785 0 01.992 1.56c.284.532.567 1.1.851 1.63l.106.213A469.257 469.257 0 0129.066 23v.035c.284.567.532 1.205.815 1.772.177.425.354.78.461 1.134a5.989 5.989 0 01.248 2.733z" fill="#a8b2b9"/></svg>