<svg xmlns="http://www.w3.org/2000/svg" width="78.367" height="27.205"><g fill="#a8b2b9"><path data-name="Path 28" d="M4.509 19.43a6.7 6.7 0 001.376 2.254 5.919 5.919 0 002.082 1.433 6.794 6.794 0 002.617.5 6.477 6.477 0 002.579-.516 6.345 6.345 0 002.1-1.452 6.583 6.583 0 001.395-2.235 8.076 8.076 0 00.5-2.9V0h4.012v26.747h-3.976v-2.484a9.211 9.211 0 01-3.152 2.178 9.99 9.99 0 01-3.916.764 10.6 10.6 0 01-3.993-.745 9.349 9.349 0 01-3.21-2.121 10 10 0 01-2.14-3.305A11.331 11.331 0 010 16.736V0h4.012v16.507a8.232 8.232 0 00.497 2.923z"/><path data-name="Path 29" d="M28.084 0v9.743a10.221 10.221 0 013.1-2.121 9.279 9.279 0 013.818-.782 10.076 10.076 0 014.012.8 10.108 10.108 0 015.426 5.426 9.982 9.982 0 01.8 3.974 9.845 9.845 0 01-.8 3.955 10.158 10.158 0 01-5.428 5.405 10.076 10.076 0 01-4.012.8 9.411 9.411 0 01-3.84-.783 10.15 10.15 0 01-3.114-2.121v2.445h-3.821V0zm.439 19.678a6.648 6.648 0 001.433 2.14 6.915 6.915 0 002.14 1.452 6.505 6.505 0 002.636.535 6.411 6.411 0 002.6-.535 6.684 6.684 0 002.121-1.452 7.086 7.086 0 001.433-2.14 6.5 6.5 0 00.535-2.636 6.641 6.641 0 00-.535-2.656 7.022 7.022 0 00-1.433-2.159 6.432 6.432 0 00-2.121-1.433 6.717 6.717 0 00-7.336 1.433 6.853 6.853 0 00-1.452 2.159 6.64 6.64 0 00-.535 2.656 6.711 6.711 0 00.515 2.636z"/><path data-name="Path 30" d="M47.418 13.106a10.4 10.4 0 012.1-3.229 10.109 10.109 0 0111.043-2.235 9.242 9.242 0 013.095 2.121 9.694 9.694 0 012.025 3.21 10.956 10.956 0 01.726 4.031v1.261H50.549a6.532 6.532 0 00.764 2.2 6.622 6.622 0 001.433 1.758 6.547 6.547 0 001.949 1.165 6.365 6.365 0 002.312.42 6.685 6.685 0 005.617-2.866l2.789 2.063a10.179 10.179 0 01-8.406 4.165 10.761 10.761 0 01-4.069-.764 9.911 9.911 0 01-3.286-2.14 10.152 10.152 0 01-2.2-3.229 10.424 10.424 0 01-.038-7.929zm5.369-1.509a6.511 6.511 0 00-2.159 3.611h11.883a6.32 6.32 0 00-2.121-3.611 6.006 6.006 0 00-7.6 0z"/><path data-name="Path 31" d="M73.629 12.036a5.174 5.174 0 00-1.223 3.63v11.082h-3.859V7.26h3.821v2.407a5.431 5.431 0 011.891-1.872 5.353 5.353 0 012.77-.688h1.337v3.592h-1.6a4.056 4.056 0 00-3.137 1.337z"/></g></svg>