<svg xmlns="http://www.w3.org/2000/svg" width="31.513" height="35.708"><path data-name="Path 7" d="M27.6 6.876a.346.346 0 00-.313-.291c-.13-.011-2.672-.05-2.672-.05S22.489 4.47 22.279 4.26a.868.868 0 00-.78-.1l-1.068.331a7.488 7.488 0 00-.511-1.256 3.6 3.6 0 00-3.2-2.21c-.093 0-.185.009-.278.017-.05-.042-.089-.093-.131-.142a2.806 2.806 0 00-2.228-.9c-1.73.05-3.452 1.3-4.849 3.518a13.929 13.929 0 00-1.943 5.043L3.885 9.616c-1 .315-1.034.346-1.165 1.291-.1.714-2.72 21-2.72 21l21.984 3.8 9.528-2.369S27.625 7.056 27.6 6.876zm-8.269-2.043l-1.706.528a9.446 9.446 0 00-.525-3.147c1.312.248 1.958 1.733 2.231 2.619zm-2.856.885L12.8 6.854a8.7 8.7 0 011.854-3.6 3.7 3.7 0 011.246-.905 8.25 8.25 0 01.575 3.369zm-2.357-4.565a1.764 1.764 0 011.04.272 5.007 5.007 0 00-1.343 1.046 10.078 10.078 0 00-2.277 4.774l-3.015.933c.596-2.778 2.925-6.948 5.595-7.025z" fill="#95bf47"/><path data-name="Path 8" d="M27.288 6.585c-.13-.011-2.672-.05-2.672-.05S22.49 4.47 22.28 4.26a.52.52 0 00-.3-.136v31.583l9.527-2.368S27.626 7.057 27.601 6.877a.347.347 0 00-.313-.292z" fill="#5e8e3e"/><path data-name="Path 9" d="M16.704 11.484l-1.107 4.14a6.285 6.285 0 00-2.7-.47c-2.146.136-2.169 1.489-2.147 1.829.117 1.852 4.988 2.256 5.261 6.593.215 3.412-1.81 5.746-4.727 5.93a7.085 7.085 0 01-5.43-1.845l.742-3.156s1.941 1.464 3.494 1.366a1.373 1.373 0 001.34-1.473c-.153-2.415-4.119-2.273-4.37-6.241-.211-3.339 1.982-6.724 6.822-7.029a5.949 5.949 0 012.822.356z" fill="#fff"/></svg>