<svg xmlns="http://www.w3.org/2000/svg" width="29.068" height="25.972"><path data-name="Path 17" d="M2.2 22.259l1.28 2.214a3.023 3.023 0 001.1 1.1l4.577-7.926H0a3.016 3.016 0 00.4 1.5z" fill="#0066da"/><path data-name="Path 18" d="M14.534 8.325L9.956.4a3.023 3.023 0 00-1.1 1.1L.4 16.149a3.017 3.017 0 00-.4 1.5h9.157z" fill="#00ac47"/><path data-name="Path 19" d="M24.49 25.572a3.024 3.024 0 001.1-1.1l.533-.916 2.546-4.409a3.016 3.016 0 00.4-1.5h-9.156l1.949 3.829z" fill="#ea4335"/><path data-name="Path 20" d="M14.534 8.324L19.113.4a2.927 2.927 0 00-1.5-.4h-6.157a3.1 3.1 0 00-1.5.4z" fill="#00832d"/><path data-name="Path 21" d="M19.911 17.647H9.156l-4.578 7.925a2.927 2.927 0 001.5.4h16.913a3.1 3.1 0 001.5-.4z" fill="#2684fc"/><path data-name="Path 22" d="M24.44 8.824L20.211 1.5a3.023 3.023 0 00-1.1-1.1l-4.577 7.925 5.377 9.323h9.14a3.016 3.016 0 00-.4-1.5z" fill="#ffba00"/></svg>