<svg xmlns="http://www.w3.org/2000/svg" width="90" height="28"><defs><linearGradient id="a" x1=".5" x2=".5" y2="1" gradientUnits="objectBoundingBox"><stop offset="0" stop-color="#254a72"/><stop offset="1" stop-color="#10243e"/></linearGradient></defs><g data-name="Logo"><path data-name="Combined Shape" d="M48.767 28a19.935 19.935 0 01-2.937-.184 2.715 2.715 0 01-1.315-.461.884.884 0 01-.265-.634V25a.96.96 0 01.265-.7.913.913 0 01.685-.274h.575l2.038.266q1.858 0 2.767-2.318a6.321 6.321 0 01-4.1-2.341c-1.9-2.384-2.021-3.156-2.872-5.885l-2.322-7.542a.81.81 0 01-.047-.289.686.686 0 01.194-.4.756.756 0 01.583-.249l3.059.013a1.43 1.43 0 01.864.305 1.381 1.381 0 01.536.758l2.038 6.625a10.41 10.41 0 001.548 3.375 2.361 2.361 0 001.859.937l3.1-10.937a1.467 1.467 0 01.49-.758 1.245 1.245 0 01.817-.305h3.283a.671.671 0 01.575.25.755.755 0 01.187.414 1.02 1.02 0 01-.032.274l-4.076 14.594a13.061 13.061 0 01-2.7 5.531A5.528 5.528 0 0149.417 28zm18.66-5.269a9.134 9.134 0 01-5.282-1.445 4.69 4.69 0 01-2.054-4.063 4.605 4.605 0 012.062-4.031 9.281 9.281 0 015.314-1.407h5.15a3.437 3.437 0 00-.762-2.546 3.894 3.894 0 00-2.669-.719 3.449 3.449 0 00-2.569.823l-.108.122a1.7 1.7 0 01-1.358.41 12.675 12.675 0 01-2.214-.275 1.873 1.873 0 01-1.337-.725.82.82 0 01-.072-.673 4.094 4.094 0 012.614-2.425 16.12 16.12 0 015.672-.808 9.774 9.774 0 015.944 1.664A6.018 6.018 0 0178 11.781v9.672a.909.909 0 01-.95.953h-3a.913.913 0 01-.685-.274.941.941 0 01-.265-.68v-.484a9.47 9.47 0 01-5.643 1.758zM66.12 15.86a1.717 1.717 0 00-.63 1.374 1.741 1.741 0 00.653 1.391 2.818 2.818 0 001.857.547 8.579 8.579 0 004.621-1.406v-2.438H67.84a2.6 2.6 0 00-1.72.532zM9.086 22.719A9.355 9.355 0 012.4 20.437a8.681 8.681 0 01-2.4-6.57 8.727 8.727 0 012.412-6.593A9.326 9.326 0 019.1 4.969a9.428 9.428 0 016.674 2.242 8.412 8.412 0 012.4 6.43v.891a.949.949 0 01-.273.7.939.939 0 01-.692.273H5.493a4.154 4.154 0 001.1 2.8 4.348 4.348 0 003.01.875 3.518 3.518 0 002.831-.937 1.579 1.579 0 011.336-.48 12.715 12.715 0 011.648.16 2.286 2.286 0 011.638.8.665.665 0 01.155.459c-.475 2.452-2.959 3.547-8.053 3.547zM6.463 9.437a4.126 4.126 0 00-1 2.766H12.7a4.083 4.083 0 00-.978-2.766 3.52 3.52 0 00-2.623-.922 3.548 3.548 0 00-2.636.922zm28.048 12.969a.914.914 0 01-.677-.274.924.924 0 01-.273-.68v-8.967c0-2.49-.991-3.251-2.972-3.251-1.3 0-2.687 1.332-4.17 2.822v9.4a.933.933 0 01-.949.953h-3.485a.917.917 0 01-.677-.274.927.927 0 01-.272-.68V.968a.945.945 0 01.272-.695.917.917 0 01.677-.273h3.486a.915.915 0 01.677.274.942.942 0 01.273.695v6.265a8.689 8.689 0 015.7-2.265 6.756 6.756 0 014.927 1.851q1.9 1.852 1.9 5.665v8.969a.934.934 0 01-.965.953z" fill="url(#a)"/><circle cx="4" cy="4" r="4" transform="translate(82 6)" fill="#1576d8"/></g></svg>