<svg xmlns="http://www.w3.org/2000/svg" xmlns:xlink="http://www.w3.org/1999/xlink" width="31.453" height="32.52"><defs><linearGradient id="a" x1=".335" y1=".303" x2=".002" y2=".519" gradientUnits="objectBoundingBox"><stop offset="0" stop-color="#0052cc"/><stop offset="1" stop-color="#2684ff"/></linearGradient><linearGradient id="b" x1="-.413" y1="-.033" x2="-.081" y2="-.248" xlink:href="#a"/></defs><g data-name="Group 7"><path d="M31.077 15.35L17.082 1.355 15.726 0 .376 15.35a1.288 1.288 0 000 1.82L10 26.794l5.725 5.727L31.077 17.17a1.287 1.287 0 000-1.82zm-15.351 5.717l-4.807-4.807 4.807-4.808 4.808 4.808z" fill="#2684ff"/><path d="M29.466 11.552A8.1 8.1 0 0129.433.138L18.911 10.655l5.727 5.727z" transform="translate(-13.74 -.1)" fill="url(#a)"/><path d="M62.331 59.414l-4.821 4.82a8.094 8.094 0 010 11.453L68.057 65.14z" transform="translate(-41.784 -43.167)" fill="url(#b)"/></g></svg>