<svg xmlns="http://www.w3.org/2000/svg" width="96.644" height="26.119"><path d="M13.289 24.435c-1.454.255-2.933.332-4.464.536L4.157 11.3v14.258c-1.454.153-2.78.357-4.157.561V0h3.877l5.305 14.82V0h4.107v24.435zm8.035-14.87c1.581 0 4-.077 5.458-.077v4.081c-1.811 0-3.928 0-5.458.077v6.071c2.4-.153 4.8-.357 7.218-.434v3.928l-11.3.893V0h11.3v4.081h-7.219zm22.394-5.484h-4.234v18.773c-1.377 0-2.755 0-4.081.051V4.081h-4.234V0h12.549zm6.632 5.2h5.586v4.081h-5.587v9.259h-4V0h11.4v4.081h-7.4zm14.029 9.769c2.321.051 4.668.23 6.938.357v4.03c-3.647-.23-7.295-.459-11.019-.536V0h4.081zm10.381 4.668c1.3.077 2.678.153 4 .306V0h-4zM96.644 0l-5.178 12.422 5.178 13.7c-1.531-.2-3.061-.485-4.591-.74l-2.933-7.55-2.984 6.938c-1.48-.255-2.908-.332-4.387-.536L87 12.269 82.258 0h4.387l2.678 6.861L92.18 0h4.464z" fill="#a8b2b9"/></svg>