<svg xmlns="http://www.w3.org/2000/svg" width="31.347" height="31.326"><defs><linearGradient id="a" x1=".5" y1="1" x2=".5" gradientUnits="objectBoundingBox"><stop offset="0" stop-color="#0052cc"/><stop offset="1" stop-color="#2684ff"/></linearGradient></defs><path data-name="Path 10" d="M28.205.07H4.306A3.726 3.726 0 00.58 3.791v23.864A3.726 3.726 0 004.306 31.4h23.9a3.726 3.726 0 003.721-3.741V3.791A3.726 3.726 0 0028.205.07zM14.1 22.633a1.245 1.245 0 01-1.255 1.24H7.621a1.24 1.24 0 01-1.235-1.24V7.091A1.24 1.24 0 017.621 5.85h5.223a1.245 1.245 0 011.24 1.24zM26.151 15.5a1.241 1.241 0 01-1.255 1.24h-5.223a1.246 1.246 0 01-1.24-1.24V7.091a1.245 1.245 0 011.24-1.24H24.9a1.24 1.24 0 011.235 1.24z" fill-rule="evenodd" fill="url(#a)" transform="translate(-.58 -.07)"/></svg>