<svg xmlns="http://www.w3.org/2000/svg" width="15.175" height="15.271"><path data-name="Subtraction 4" d="M14.053 15.27H1.121A1.108 1.108 0 010 14.177V1.094A1.108 1.108 0 011.121 0h12.933a1.108 1.108 0 011.121 1.094v13.083a1.108 1.108 0 01-1.122 1.093zM2.309 5.888v6.9H4.6v-6.9zm5.852 0H5.869c.03.633 0 6.836 0 6.9H8.16V8.933a1.525 1.525 0 01.076-.559 1.431 1.431 0 01.413-.574 1.177 1.177 0 01.763-.265 1.01 1.01 0 01.891.432 2 2 0 01.27 1.127v3.689h2.292V8.829c0-1.94-.987-3.1-2.638-3.1A2.29 2.29 0 008.16 6.863zm-4.69-3.326a1.194 1.194 0 10-.03 2.382h.015a1.2 1.2 0 10.016-2.382z" fill="#5c7589"/></svg>