<svg width="433" height="371" xmlns="http://www.w3.org/2000/svg" xmlns:xlink="http://www.w3.org/1999/xlink"><defs><filter x="-60.5%" y="-40.8%" width="221.1%" height="221.1%" filterUnits="objectBoundingBox" id="a"><feMorphology radius="1" operator="dilate" in="SourceAlpha" result="shadowSpreadOuter1"/><feOffset dy="15" in="shadowSpreadOuter1" result="shadowOffsetOuter1"/><feGaussianBlur stdDeviation="12.5" in="shadowOffsetOuter1" result="shadowBlurOuter1"/><feComposite in="shadowBlurOuter1" in2="SourceAlpha" operator="out" result="shadowBlurOuter1"/><feColorMatrix values="0 0 0 0 0 0 0 0 0 0 0 0 0 0 0 0 0 0 0.06 0" in="shadowBlurOuter1"/></filter><filter x="-60.5%" y="-40.8%" width="221.1%" height="221.1%" filterUnits="objectBoundingBox" id="c"><feMorphology radius="1" operator="dilate" in="SourceAlpha" result="shadowSpreadOuter1"/><feOffset dy="15" in="shadowSpreadOuter1" result="shadowOffsetOuter1"/><feGaussianBlur stdDeviation="12.5" in="shadowOffsetOuter1" result="shadowBlurOuter1"/><feComposite in="shadowBlurOuter1" in2="SourceAlpha" operator="out" result="shadowBlurOuter1"/><feColorMatrix values="0 0 0 0 0 0 0 0 0 0 0 0 0 0 0 0 0 0 0.06 0" in="shadowBlurOuter1"/></filter><filter x="-60.5%" y="-40.8%" width="221.1%" height="221.1%" filterUnits="objectBoundingBox" id="e"><feMorphology radius="1" operator="dilate" in="SourceAlpha" result="shadowSpreadOuter1"/><feOffset dy="15" in="shadowSpreadOuter1" result="shadowOffsetOuter1"/><feGaussianBlur stdDeviation="12.5" in="shadowOffsetOuter1" result="shadowBlurOuter1"/><feComposite in="shadowBlurOuter1" in2="SourceAlpha" operator="out" result="shadowBlurOuter1"/><feColorMatrix values="0 0 0 0 0 0 0 0 0 0 0 0 0 0 0 0 0 0 0.06 0" in="shadowBlurOuter1"/></filter><filter x="-60.5%" y="-40.8%" width="221.1%" height="221.1%" filterUnits="objectBoundingBox" id="g"><feMorphology radius="1" operator="dilate" in="SourceAlpha" result="shadowSpreadOuter1"/><feOffset dy="15" in="shadowSpreadOuter1" result="shadowOffsetOuter1"/><feGaussianBlur stdDeviation="12.5" in="shadowOffsetOuter1" result="shadowBlurOuter1"/><feComposite in="shadowBlurOuter1" in2="SourceAlpha" operator="out" result="shadowBlurOuter1"/><feColorMatrix values="0 0 0 0 0 0 0 0 0 0 0 0 0 0 0 0 0 0 0.06 0" in="shadowBlurOuter1"/></filter><filter x="-60.7%" y="-40.4%" width="221.4%" height="221.4%" filterUnits="objectBoundingBox" id="i"><feMorphology radius=".842" operator="dilate" in="SourceAlpha" result="shadowSpreadOuter1"/><feOffset dy="13" in="shadowSpreadOuter1" result="shadowOffsetOuter1"/><feGaussianBlur stdDeviation="10.5" in="shadowOffsetOuter1" result="shadowBlurOuter1"/><feComposite in="shadowBlurOuter1" in2="SourceAlpha" operator="out" result="shadowBlurOuter1"/><feColorMatrix values="0 0 0 0 0 0 0 0 0 0 0 0 0 0 0 0 0 0 0.06 0" in="shadowBlurOuter1"/></filter><circle id="b" cx="38" cy="38" r="38"/><circle id="d" cx="38" cy="38" r="38"/><circle id="f" cx="38" cy="38" r="38"/><circle id="h" cx="38" cy="38" r="38"/><circle id="j" cx="32" cy="32" r="32"/><linearGradient x1=".333%" y1="99.884%" x2="100.095%" y2="99.884%" id="k"><stop stop-color="#E96F0B" offset="0%"/><stop stop-color="#F37901" offset="100%"/></linearGradient></defs><g fill="none" fill-rule="evenodd"><g transform="translate(221 138)"><use fill="#000" filter="url(#a)" xlink:href="#b"/><use stroke="#FFF" stroke-width="2" fill="#FFF" xlink:href="#b"/></g><g fill="#0080FF"><path d="M259.002 196v-7.752c8.21 0 14.582-8.137 11.43-16.773a11.588 11.588 0 00-6.917-6.913c-8.64-3.128-16.782 3.219-16.782 11.424H239c0-13.078 12.654-23.278 26.375-18.994 5.987 1.88 10.772 6.64 12.631 12.625C282.293 183.352 272.11 196 259.002 196z"/><path d="M251.314 188.27h7.71v-7.706h-7.71v7.707zm-5.941 5.94h5.941v-5.94h-5.941v5.94zm-4.966-5.94h4.967v-4.963h-4.967v4.964z"/></g><g transform="translate(26 138)"><use fill="#000" filter="url(#c)" xlink:href="#d"/><use stroke="#FFF" stroke-width="2" fill="#FFF" xlink:href="#d"/></g><path d="M79.038 156H49.087a4.994 4.994 0 00-4.998 4.989c-.009 0 0-.356 0 29.933a4.992 4.992 0 004.989 4.989h29.951a4.992 4.992 0 004.962-4.989v-29.933A4.979 4.979 0 0079.038 156zm-17.399 30.227a2.397 2.397 0 01-2.396 2.37h-7.368a2.388 2.388 0 01-2.405-2.37v-22.646a2.397 2.397 0 012.396-2.396h7.386a2.397 2.397 0 012.396 2.396v22.646h-.009zm17.203-9.978a2.397 2.397 0 01-2.397 2.397H69.23a2.397 2.397 0 01-2.396-2.397V163.59a2.395 2.395 0 012.387-2.396h7.225a2.397 2.397 0 012.397 2.396v12.66z" fill="#000" fill-rule="nonzero"/><g transform="translate(331 11)"><use fill="#000" filter="url(#e)" xlink:href="#f"/><use stroke="#FFF" stroke-width="2" fill="#FFF" xlink:href="#f"/></g><g fill-rule="nonzero"><path d="M363.634 29a3.994 3.994 0 00-3.99 3.998 3.995 3.995 0 003.991 3.999h3.992V33a3.998 3.998 0 00-3.993-4c.001 0 .001 0 0 0m0 10.664h-10.642A3.995 3.995 0 00349 43.663a3.995 3.995 0 003.99 4h10.644a3.995 3.995 0 003.991-3.999 3.996 3.996 0 00-3.991-4z" fill="#36C5F0"/><path d="M388.912 43.663a3.995 3.995 0 00-3.992-3.999 3.995 3.995 0 00-3.992 3.999v4h3.992a3.996 3.996 0 003.992-4zm-10.643 0V32.998a3.996 3.996 0 00-3.99-3.998 3.995 3.995 0 00-3.992 3.998v10.665a3.995 3.995 0 003.99 4 3.996 3.996 0 003.992-4z" fill="#2EB67D"/><path d="M374.277 68.992a3.995 3.995 0 003.992-3.999 3.995 3.995 0 00-3.992-3.998h-3.992v3.998a3.997 3.997 0 003.992 3.999zm0-10.666h10.643a3.995 3.995 0 003.992-3.999 3.995 3.995 0 00-3.99-4h-10.644a3.995 3.995 0 00-3.991 3.999 3.994 3.994 0 003.99 4z" fill="#ECB22E"/><path d="M349 54.327a3.995 3.995 0 003.992 3.999 3.995 3.995 0 003.992-3.999V50.33h-3.992A3.995 3.995 0 00349 54.327zm10.643 0v10.665a3.995 3.995 0 003.99 4 3.995 3.995 0 003.992-3.999V54.331a3.995 3.995 0 00-3.99-4 3.992 3.992 0 00-3.992 3.996s0 .002 0 0" fill="#E01E5A"/></g><g><g transform="translate(144 11)"><use fill="#000" filter="url(#g)" xlink:href="#h"/><use stroke="#FFF" stroke-width="2" fill="#FFF" xlink:href="#h"/></g><path d="M193.858 36.454c.153 0 .305.128.335.321.03.225 4.14 29.558 4.14 29.558L186.613 69 165 64.727s2.77-22.65 2.892-23.422c.122-1.06.152-1.092 1.218-1.446.152-.064 1.522-.514 3.409-1.124.73-3.277 3.075-9.735 7.976-9.735.639 0 1.37.353 1.978 1.189h.183c2.1 0 3.288 1.895 3.957 3.952.67-.225 1.096-.354 1.127-.354.152-.064.608-.128.822.097.243.224 2.252 2.345 2.252 2.345s2.892.225 3.044.225zm-9.558-1.56c.389-.127.754-.248 1.096-.368-.457-1.51-1.157-2.795-2.253-2.923.244.803.426 1.83.426 3.116v.418c.252-.085.495-.165.73-.242h.001zm-2.496-3.067c.304.803.487 1.928.487 3.47v.225l-1.55.5c-.732.236-1.484.479-2.225.72.73-2.923 2.1-4.369 3.288-4.915zm-.822-1.22a1.035 1.035 0 00-.64-.226c-3.5 0-5.48 4.852-6.301 7.84.944-.29 1.948-.61 2.983-.964.7-3.92 2.405-5.88 3.958-6.65z" fill="#95BF47"/><path d="M193.858 36.454c-.152 0-3.044-.225-3.044-.225s-2.009-2.12-2.252-2.345a.57.57 0 00-.305-.161L186.613 69l11.72-2.667s-4.11-29.333-4.14-29.526c-.03-.225-.213-.321-.335-.353z" fill="#5E8E3E" fill-rule="nonzero"/><path d="M182.625 43.297l-1.43 4.53s-1.279-.706-2.8-.706c-2.284 0-2.375 1.51-2.375 1.895 0 2.057 5.114 2.86 5.114 7.711 0 3.823-2.283 6.265-5.388 6.265-3.714 0-5.601-2.442-5.601-2.442l1.004-3.47s1.948 1.768 3.592 1.768c1.066 0 1.522-.9 1.522-1.543 0-2.698-4.2-2.827-4.2-7.26 0-3.727 2.526-7.358 7.67-7.358 1.918 0 2.892.61 2.892.61z" fill="#FFF" fill-rule="nonzero"/></g><g><g transform="translate(169 272)"><use fill="#000" filter="url(#i)" xlink:href="#j"/><use stroke="#FFF" stroke-width="1.684" fill="#FFF" xlink:href="#j"/></g><path d="M199.194 322h-13.25a2.94 2.94 0 01-2.944-2.94v-6.343a2.94 2.94 0 012.944-2.94h8.369v-9.282a2.94 2.94 0 012.944-2.94h9.299v24.368h-7.362V322z" fill="#FFC517"/><path d="M216.007 322h-9.451v-33.039c0-1.636 1.339-2.961 2.993-2.961h6.458c1.654 0 2.993 1.325 2.993 2.961v30.078c-.079 1.636-1.417 2.961-2.993 2.961z" fill="#F57E02"/><path d="M36 23.778v9.283C36 34.685 34.661 36 33.007 36h-9.451V11.556L36 23.778z" fill="url(#k)" transform="translate(183 286)"/></g></g></svg>