<svg xmlns="http://www.w3.org/2000/svg" width="1136" height="62"><path data-name="Combined Shape" d="M1034 58a4 4 0 114 4 4 4 0 01-4-4zm-94 0a4 4 0 114 4 4 4 0 01-4-4zm-94 0a4 4 0 114 4 4 4 0 01-4-4zm-94 0a4 4 0 114 4 4 4 0 01-4-4zm-94 0a4 4 0 114 4 4 4 0 01-4-4zm-94 0a4 4 0 114 4 4 4 0 01-4-4zm-94 0a4 4 0 114 4 4 4 0 01-4-4zm-94 0a4 4 0 114 4 4 4 0 01-4-4zm-94 0a4 4 0 114 4 4 4 0 01-4-4zm-94 0a4 4 0 114 4 4 4 0 01-4-4zm-94 0a4 4 0 114 4 4 4 0 01-4-4zM0 58a4 4 0 114 4 4 4 0 01-4-4zM1128 4a4 4 0 114 4 4 4 0 01-4-4zm-94 0a4 4 0 114 4 4 4 0 01-4-4zm-94 0a4 4 0 114 4 4 4 0 01-4-4zm-94 0a4 4 0 114 4 4 4 0 01-4-4zm-94 0a4 4 0 114 4 4 4 0 01-4-4zm-94 0a4 4 0 114 4 4 4 0 01-4-4zm-94 0a4 4 0 114 4 4 4 0 01-4-4zm-94 0a4 4 0 114 4 4 4 0 01-4-4zm-94 0a4 4 0 114 4 4 4 0 01-4-4zm-94 0a4 4 0 114 4 4 4 0 01-4-4zm-94 0a4 4 0 114 4 4 4 0 01-4-4zM94 4a4 4 0 114 4 4 4 0 01-4-4z" fill="#b3bac5"/></svg>