<svg xmlns="http://www.w3.org/2000/svg" width="94.903" height="31.24"><g fill="#a8b2b9"><path d="M40.613 16.44a7.831 7.831 0 11-7.831-7.807 7.71 7.71 0 017.831 7.807zm-3.428 0a4.414 4.414 0 10-8.806 0 4.414 4.414 0 108.806 0z"/><path d="M57.507 16.44a7.831 7.831 0 11-7.831-7.807 7.71 7.71 0 017.831 7.807zm-3.428 0a4.414 4.414 0 10-8.806 0 4.414 4.414 0 108.806 0zM73.697 9.105v14.016c0 5.765-3.4 8.12-7.419 8.12a7.434 7.434 0 01-6.92-4.6l2.985-1.242a4.312 4.312 0 003.931 2.77c2.573 0 4.167-1.587 4.167-4.576v-1.122h-.12a5.315 5.315 0 01-4.111 1.774 7.812 7.812 0 010-15.61 5.41 5.41 0 014.111 1.746h.12V9.109h3.256zm-3.013 7.366c0-2.749-1.834-4.759-4.167-4.759a4.514 4.514 0 00-4.347 4.759 4.48 4.48 0 004.347 4.7c2.334 0 4.167-1.982 4.167-4.7zM79.065.89v22.878h-3.344V.89zM92.094 19.009l2.661 1.774a7.77 7.77 0 01-6.5 3.46 7.638 7.638 0 01-7.747-7.807c0-4.642 3.34-7.807 7.363-7.807 4.051 0 6.033 3.224 6.68 4.966l.356.887-10.438 4.323a3.973 3.973 0 003.784 2.365 4.455 4.455 0 003.841-2.161zm-8.19-2.809l6.976-2.9a3.022 3.022 0 00-2.9-1.654 4.282 4.282 0 00-4.076 4.555zM12.294 14.409V11.1h11.161a10.975 10.975 0 01.165 2 10.938 10.938 0 01-2.869 7.747 11.084 11.084 0 01-8.454 3.4A12.292 12.292 0 010 12.122 12.292 12.292 0 0112.3 0a11.55 11.55 0 018.3 3.34l-2.333 2.337a8.442 8.442 0 00-5.973-2.365 8.7 8.7 0 00-8.694 8.81 8.7 8.7 0 008.693 8.81 8.109 8.109 0 006.121-2.425 6.865 6.865 0 001.8-4.1z"/></g></svg>