<svg xmlns="http://www.w3.org/2000/svg" width="34.196" height="42"><path d="M33.1 14.319a9.513 9.513 0 00-4.545 8 9.261 9.261 0 005.645 8.495 22.027 22.027 0 01-2.886 5.96c-1.8 2.587-3.675 5.171-6.532 5.171s-3.591-1.659-6.889-1.659c-3.213 0-4.356 1.714-6.968 1.714s-4.436-2.394-6.532-5.335A25.727 25.727 0 010 22.758c0-8.166 5.309-12.5 10.535-12.5 2.776 0 5.091 1.823 6.834 1.823 1.659 0 4.247-1.932 7.405-1.932a9.9 9.9 0 018.326 4.17zM23.275 6.7A9.379 9.379 0 0025.5.844 4.032 4.032 0 0025.425 0a9.4 9.4 0 00-6.179 3.184 9.131 9.131 0 00-2.314 5.692 3.857 3.857 0 00.08.76 3.287 3.287 0 00.571.055A8.14 8.14 0 0023.275 6.7z" fill="#fff"/></svg>