<svg xmlns="http://www.w3.org/2000/svg" width="17.123" height="17.136"><path d="M8.575 4.183a4.376 4.376 0 104.376 4.376 4.362 4.362 0 00-4.376-4.376m0 7.23a2.854 2.854 0 112.854-2.854 2.86 2.86 0 01-2.854 2.855m5.591-7.419a1.026 1.026 0 11-1.026-1.026 1.029 1.029 0 011.026 1.026m2.909 1.043a5.092 5.092 0 00-1.385-3.589A5.108 5.108 0 0012.097.064c-1.422-.089-5.64-.089-7.059 0a5.092 5.092 0 00-3.589 1.385A5.063 5.063 0 00.064 5.038c-.089 1.419-.089 5.637 0 7.059a5.092 5.092 0 001.385 3.589 5.138 5.138 0 003.589 1.389c1.419.085 5.641.085 7.059 0a5.092 5.092 0 003.589-1.385 5.108 5.108 0 001.389-3.593c.068-1.419.068-5.658 0-7.059m-1.829 8.563a2.864 2.864 0 01-1.624 1.624c-1.128.444-3.795.342-5.042.342s-3.914.1-5.042-.342a2.864 2.864 0 01-1.624-1.624c-.444-1.128-.342-3.795-.342-5.042s-.1-3.914.342-5.042a2.864 2.864 0 011.62-1.624c1.128-.444 3.795-.342 5.042-.342s3.914-.1 5.042.342a2.864 2.864 0 011.624 1.624c.444 1.128.342 3.795.342 5.042s.1 3.914-.342 5.042" fill="#5c7589"/></svg>